<?xml version="1.0" encoding="UTF-8"?>
<svg xmlns="http://www.w3.org/2000/svg" xmlns:xlink="http://www.w3.org/1999/xlink" viewBox="0 0 1920 1080">
  <defs>
    <style>
      .cls-1 {
        fill: url(#linear-gradient);
      }

      .cls-1, .cls-2, .cls-3, .cls-4, .cls-5 {
        stroke-width: 0px;
      }

      .cls-6 {
        isolation: isolate;
      }

      .cls-2 {
        fill: url(#linear-gradient-4);
        mix-blend-mode: darken;
      }

      .cls-3 {
        fill: url(#linear-gradient-2);
        mix-blend-mode: lighten;
      }

      .cls-4 {
        fill: url(#linear-gradient-3);
      }

      .cls-5 {
        fill: #1f398f;
      }
    </style>
    <linearGradient id="linear-gradient" x1="910.15" y1="-3686.38" x2="1125.34" y2="-3686.38" gradientTransform="translate(2956.12 -2876.19) rotate(-164.32)" gradientUnits="userSpaceOnUse">
      <stop offset="0" stop-color="#1f2247"/>
      <stop offset=".54" stop-color="#274590"/>
      <stop offset=".93" stop-color="#29abe2"/>
    </linearGradient>
    <linearGradient id="linear-gradient-2" x1="1224.58" y1="-3545.59" x2="1440.29" y2="-3545.59" gradientTransform="translate(2966.65 -2793.75) rotate(-168.88)" gradientUnits="userSpaceOnUse">
      <stop offset=".32" stop-color="#29abe2"/>
      <stop offset=".7" stop-color="#29a0d9" stop-opacity="0"/>
    </linearGradient>
    <linearGradient id="linear-gradient-3" x1="999.89" y1="223.76" x2="1215.08" y2="223.76" gradientTransform="translate(26.23 78.86) rotate(4.56)" gradientUnits="userSpaceOnUse">
      <stop offset=".07" stop-color="#29abe2"/>
      <stop offset=".46" stop-color="#274590"/>
      <stop offset="1" stop-color="#1f2247"/>
    </linearGradient>
    <linearGradient id="linear-gradient-4" x1="1187.07" y1="342.36" x2="953.65" y2="373.13" gradientUnits="userSpaceOnUse">
      <stop offset="0" stop-color="#2759a0" stop-opacity="0"/>
      <stop offset=".57" stop-color="#212956"/>
    </linearGradient>
  </defs>
  <g class="cls-6">
    <g id="Layer_3" data-name="Layer 3">
      <path class="cls-5" d="M452.55,517.34c18.89,0,33.7,14.57,38.64,38.01l.33,1.59h20.16l-.59-2.47c-6.88-28.58-35.36-43.53-59.94-43.53-34.15,0-71,28.22-71,73.8s38.83,74.2,74.8,74.2c13.91,0,26.92-4.82,38.69-14.32l12.7,12.32h4.81v-62h-20v44.49c-9.76,8.34-20.87,13.11-30.6,13.11-28.42,0-57.2-23.36-57.2-68,0-19.45,5.65-37.07,15.92-49.61,9.16-11.18,21.29-17.59,33.28-17.59Z"/>
      <polygon class="cls-5" points="540.15 512.94 520.15 512.94 520.15 656.94 594.15 656.94 594.15 648.87 540.15 650.67 540.15 512.94"/>
      <path class="cls-5" d="M661.15,510.94c-34.15,0-71,28.22-71,73.8s36.85,74.2,71,74.2,71.2-28.37,71.2-74.2-36.96-73.8-71.2-73.8ZM613.35,584.54c0-41.51,24.81-67.2,47.8-67.2s48,24.61,48,65.8-24.92,69.4-48,69.4c-11.62,0-23.37-6.44-32.26-17.67-7.09-8.96-15.54-24.97-15.54-50.33Z"/>
      <path class="cls-5" d="M812.24,581.12c17.93-7.19,24.79-22.83,23.35-35.69-1.82-16.17-16.58-32.49-45.44-32.49h-49.8v144h55.8c29.94,0,45.6-19.62,45.6-39,0-14.94-9.2-31.17-29.5-36.82ZM806.83,569.81c-2.83,4.16-8.02,9.12-16.68,9.12h-29.8v-60h29.8c15.42,0,22.45,15.55,22.45,30,0,7.99-2.05,15.4-5.77,20.88ZM760.35,584.94h35.8c15.39,0,22.4,17.11,22.4,33s-7.69,33-22.4,33h-35.8v-66Z"/>
      <path class="cls-5" d="M884.24,512.94l3.61,11.8-40.82,132.2h6.19l21.2-69h33.04l21.2,69h20.19l-44.43-144h-20.18ZM876.45,581.94l14.49-47.19,14.49,47.19h-28.99Z"/>
      <polygon class="cls-5" points="975.14 512.94 955.14 512.94 955.14 656.94 1048.64 656.94 1048.64 648.87 975.14 650.67 975.14 512.94"/>
      <polygon class="cls-5" points="1093.14 656.94 1113.14 656.94 1113.14 587.94 1152.34 587.94 1152.34 579.84 1113.14 581.64 1113.14 519.22 1159.74 521.02 1159.74 512.94 1093.14 512.94 1093.14 656.94"/>
      <path class="cls-5" d="M1250.14,618.54c0,28.43-18.82,34.4-34.6,34.4-21.26,0-28.8-9-28.8-34.4v-105.6h-20v106.4c0,32.98,19.05,39.6,49.8,39.6,25.17,0,39.6-14.72,39.6-40.4v-105.6h-6v105.6Z"/>
      <polygon class="cls-5" points="1339.94 641.46 1280.42 512.94 1264.38 512.94 1263.14 512.94 1261.14 512.94 1261.14 656.94 1267.14 656.94 1267.14 528.42 1326.66 656.94 1342.7 656.94 1343.94 656.94 1345.94 656.94 1345.94 512.94 1339.94 512.94 1339.94 641.46"/>
      <path class="cls-5" d="M1402.74,512.94h-49.8v144h49.8c16.74,0,30.78-7.88,40.59-22.77,8.58-13.02,13.3-30.5,13.3-49.22s-4.73-36.21-13.3-49.23c-9.82-14.9-23.86-22.77-40.59-22.77ZM1372.94,518.94h29.8c20.15,0,30.7,33.2,30.7,66,0,17.55-2.85,33.87-8.01,45.96-3.91,9.14-11.01,20.04-22.69,20.04h-29.8v-132Z"/>
      <rect class="cls-5" x="1464.74" y="512.94" width="20" height="144"/>
      <polygon class="cls-5" points="1570.54 641.46 1511.02 512.94 1494.98 512.94 1493.74 512.94 1491.74 512.94 1491.74 656.94 1497.74 656.94 1497.74 528.42 1557.26 656.94 1573.3 656.94 1574.54 656.94 1576.54 656.94 1576.54 512.94 1570.54 512.94 1570.54 641.46"/>
      <path class="cls-5" d="M1693.54,639.42c-9.76,8.34-20.87,13.11-30.6,13.11-28.42,0-57.2-23.36-57.2-68,0-19.45,5.65-37.07,15.92-49.61,9.16-11.18,21.29-17.59,33.28-17.59,18.89,0,33.7,14.57,38.64,38.01l.33,1.59h20.16l-.59-2.47c-6.88-28.58-35.36-43.53-59.94-43.53-34.15,0-71,28.22-71,73.8s38.83,74.2,74.8,74.2c13.91,0,26.92-4.82,38.69-14.32l12.7,12.32h4.81v-62h-20v44.49Z"/>
      <g>
        <path class="cls-1" d="M939.86,315.32c4.89-.44,11.11,2.95,11.29,4.9,10.08,68.13,66.59,126.17,136.52,92.26-32.42,56.18-116.39,65.71-171.14,36.89-66.73-33.21-50.23-125.65,23.33-134.05Z"/>
        <path class="cls-3" d="M973.69,438.28c-29.45-2.71-58.42-8.14-86.51-17.49-.75-.25-1.5-.51-2.24-.76,6.89,11.66,17.61,21.96,32.44,29.34,54.75,28.82,138.71,19.29,171.14-36.89,0,0-28.91,29.08-85.79,27.56-9.69-.11-19.39-.87-29.03-1.76Z"/>
        <path class="cls-4" d="M1167.74,463.32c-4.72,1.38-11.47-.75-12.02-2.63-23.03-64.91-89.67-110.96-151.75-64.2,20.98-61.38,101.53-86.92,160.81-69.2,71.88,19.71,73.52,113.61,2.96,136.03Z"/>
        <path class="cls-2" d="M1111.66,349.03c29.42-3.02,58.9-3.28,88.26.48.78.1,1.57.21,2.35.31-9.01-10.11-21.51-18.16-37.49-22.54-59.28-17.72-139.83,7.82-160.81,69.2,0,0,22.76-34.11,78.87-43.58,9.53-1.76,19.2-2.88,28.83-3.87Z"/>
      </g>
    </g>
  </g>
</svg>