<?xml version="1.0" encoding="UTF-8"?>
<svg xmlns="http://www.w3.org/2000/svg" xmlns:xlink="http://www.w3.org/1999/xlink" viewBox="0 0 1920 1080">
  <defs>
    <style>
      .cls-1 {
        fill: url(#linear-gradient);
      }

      .cls-1, .cls-2, .cls-3, .cls-4, .cls-5 {
        stroke-width: 0px;
      }

      .cls-6 {
        mix-blend-mode: lighten;
      }

      .cls-7 {
        isolation: isolate;
      }

      .cls-2 {
        fill: url(#linear-gradient-2);
      }

      .cls-8 {
        opacity: .96;
      }

      .cls-3 {
        fill: url(#linear-gradient-3);
      }

      .cls-4 {
        fill: url(#linear-gradient-4);
      }

      .cls-9 {
        mix-blend-mode: darken;
      }

      .cls-5 {
        fill: #2e214e;
      }
    </style>
    <linearGradient id="linear-gradient" x1="-6706.68" y1="-2638.82" x2="-6500.3" y2="-2638.82" gradientTransform="translate(-4659.51 -3924.77) rotate(-164.32)" gradientUnits="userSpaceOnUse">
      <stop offset=".03" stop-color="#7b64d6"/>
      <stop offset=".91" stop-color="#140f24"/>
    </linearGradient>
    <linearGradient id="linear-gradient-2" x1="-6462.83" y1="-2797.71" x2="-6255.96" y2="-2797.71" gradientTransform="translate(-4720.52 -3541.99) rotate(-168.88)" gradientUnits="userSpaceOnUse">
      <stop offset="0" stop-color="#1f1837"/>
      <stop offset="1" stop-color="#765fcc" stop-opacity="0"/>
    </linearGradient>
    <linearGradient id="linear-gradient-3" x1="991.95" y1="-81.91" x2="1198.33" y2="-81.91" gradientTransform="translate(13.95 387.36) rotate(4.56)" gradientUnits="userSpaceOnUse">
      <stop offset=".09" stop-color="#140f24"/>
      <stop offset=".97" stop-color="#7b64d6"/>
    </linearGradient>
    <linearGradient id="linear-gradient-4" x1="1008.12" y1="363.22" x2="1215" y2="363.22" gradientUnits="userSpaceOnUse">
      <stop offset=".32" stop-color="#6955b7"/>
      <stop offset=".73" stop-color="#1e1734" stop-opacity=".1"/>
    </linearGradient>
  </defs>
  <g class="cls-7">
    <g id="Layer_3" data-name="Layer 3">
      <g>
        <path class="cls-5" d="M706.67,512.94l3.61,11.8-40.82,132.2h6.19l21.2-69h33.04l21.2,69h20.19l-44.43-144h-20.18ZM698.88,581.94l14.49-47.19,14.49,47.19h-28.99Z"/>
        <rect class="cls-5" x="777.57" y="512.94" width="20" height="144"/>
        <polygon class="cls-5" points="944.77 512.94 817.07 512.94 817.07 521.05 892.17 519.25 892.17 656.94 912.17 656.94 912.17 519.25 944.77 521.05 944.77 512.94"/>
        <path class="cls-5" d="M1011.77,510.94c-34.15,0-71,28.21-71,73.8s36.85,74.2,71,74.2,71.2-28.37,71.2-74.2-36.96-73.8-71.2-73.8ZM963.97,584.54c0-41.51,24.81-67.2,47.8-67.2s48,24.61,48,65.8-24.92,69.4-48,69.4c-11.62,0-23.37-6.44-32.26-17.67-7.09-8.96-15.54-24.97-15.54-50.33Z"/>
        <path class="cls-5" d="M1172.37,618.54c0,28.43-18.82,34.4-34.6,34.4-21.26,0-28.8-9-28.8-34.4v-105.6h-20v106.4c0,32.98,19.05,39.6,49.8,39.6,25.17,0,39.6-14.72,39.6-40.4v-105.6h-6v105.6Z"/>
        <path class="cls-5" d="M1256.77,517.34c18.89,0,33.7,14.57,38.64,38.01l.33,1.59h20.16l-.59-2.47c-6.88-28.58-35.36-43.53-59.94-43.53-34.15,0-71,28.21-71,73.8s36.85,74.2,71,74.2c23.19,0,41.69-9.87,53.49-28.53l1.13-1.79-5.4-3-.97,1.75c-10.32,18.58-29.43,25.17-42.65,25.17-26.54,0-53.4-23.36-53.4-68,0-19.45,5.65-37.07,15.92-49.61,9.16-11.18,21.29-17.59,33.28-17.59Z"/>
        <polygon class="cls-5" points="1404.76 512.94 1404.76 581.94 1343.37 581.94 1343.37 512.94 1323.37 512.94 1323.37 656.94 1343.37 656.94 1343.37 587.94 1404.76 587.94 1404.76 656.94 1424.76 656.94 1424.76 512.94 1404.76 512.94"/>
      </g>
      <g class="cls-8">
        <path class="cls-1" d="M946.63,321.2c4.69-.42,10.66,2.82,10.83,4.7,9.66,65.34,63.86,121.01,130.93,88.49-31.1,53.88-111.62,63.02-164.13,35.38-64-31.85-48.17-120.51,22.37-128.56Z"/>
        <g class="cls-9">
          <path class="cls-2" d="M978.27,439.12c-28.24-2.6-56.03-7.81-82.97-16.78-.72-.24-1.43-.49-2.15-.73,6.61,11.18,16.89,21.07,31.11,28.14,52.51,27.64,133.03,18.5,164.13-35.38,0,0-27.73,27.89-82.28,26.43-9.3-.11-18.6-.84-27.84-1.69Z"/>
        </g>
        <path class="cls-3" d="M1165.19,463.15c-4.52,1.32-11-.72-11.53-2.52-22.08-62.25-86-106.42-145.54-61.58,20.12-58.86,97.38-83.36,154.23-66.37,68.94,18.91,70.51,108.96,2.84,130.47Z"/>
        <g class="cls-6">
          <path class="cls-4" d="M1111.4,353.53c28.22-2.9,56.48-3.14,84.64.46.75.1,1.5.2,2.25.3-8.64-9.7-20.63-17.41-35.95-21.62-56.85-16.99-134.1,7.5-154.23,66.37,0,0,21.83-32.72,75.64-41.8,9.14-1.69,18.41-2.76,27.65-3.71Z"/>
        </g>
      </g>
    </g>
  </g>
</svg>